<?xml version="1.0" encoding="utf-8"?>
<!-- Generator: Adobe Illustrator 22.0.1, SVG Export Plug-In . SVG Version: 6.00 Build 0)  -->
<svg version="1.1" id="Layer_1" xmlns="http://www.w3.org/2000/svg" xmlns:xlink="http://www.w3.org/1999/xlink" x="0px" y="0px"
	 viewBox="0 0 24 24" style="enable-background:new 0 0 24 24;" xml:space="preserve">
<style type="text/css">
	.st0{fill:url(#SVGID_1_);}
	.st1{fill:url(#SVGID_2_);}
	.st2{fill:url(#SVGID_3_);}
</style>
<g>
	<linearGradient id="SVGID_1_" gradientUnits="userSpaceOnUse" x1="19.2514" y1="4.4039" x2="4.8808" y2="9.6344">
		<stop  offset="0" style="stop-color:#ffffff"/>
		<stop  offset="0.4438" style="stop-color:#ffffff"/>
		<stop  offset="1" style="stop-color:#ffffff"/>
	</linearGradient>
	<path class="st0" d="M12,12.1L7.9,9.7L12,7.4l4.1,2.4L12,12.1z M15.4,4L12,2L8.6,4L12,6L15.4,4z M13.3,6.7l3.3-2.1l3.4,2l-3.3,2.1
		L13.3,6.7z M7.3,8.7l-3.4-2l3.4-2l3.4,2L7.3,8.7z"/>
	<linearGradient id="SVGID_2_" gradientUnits="userSpaceOnUse" x1="11.9839" y1="21.423" x2="20.8122" y2="7.8287">
		<stop  offset="0" style="stop-color:#ffffff"/>
		<stop  offset="0.2712" style="stop-color:#ffffff"/>
		<stop  offset="0.5259" style="stop-color:#ffffff"/>
		<stop  offset="1" style="stop-color:#ffffff"/>
	</linearGradient>
	<path class="st1" d="M16.1,14.4L12,16.8l0-4.7l4.1-2.4L16.1,14.4z M17.4,19.1l3.4-2l0-4l-3.4,2L17.4,19.1z M16.1,15.9l0,4l-3.4,2
		l0-4L16.1,15.9z M20.8,11.7l-3.4,2.1l0-4l3.4-2L20.8,11.7z"/>
	<linearGradient id="SVGID_3_" gradientUnits="userSpaceOnUse" x1="3.5399" y1="7.7011" x2="11.732" y2="21.8211">
		<stop  offset="0" style="stop-color:#ffffff"/>
		<stop  offset="0.3475" style="stop-color:#ffffff"/>
		<stop  offset="0.707" style="stop-color:#ffffff"/>
		<stop  offset="1" style="stop-color:#ffffff"/>
	</linearGradient>
	<path class="st2" d="M6.6,19.3l-3.4-2l0-4l3.4,2L6.6,19.3z M3.2,11.8l3.4,2l0-4l-3.4-2L3.2,11.8z M11.4,18l-3.4-2l0,4l3.4,2
		L11.4,18z M12,12.1L7.9,9.7l0,4.7l4.1,2.4L12,12.1z"/>
</g>
</svg>
