<svg width="60" height="60" viewBox="0 0 60 60" fill="none" xmlns="http://www.w3.org/2000/svg">
<path fill-rule="evenodd" clip-rule="evenodd" d="M10.6286 30L29.9143 10.5429L49.4571 30L30 49.3714L10.6286 30ZM29.9143 10.5429L29.8096 10.6038L29.9143 10.5429L29.9143 10.5429ZM17.755 42.34L1.8 33.1714C-0.6 31.8 -0.6 28.2857 1.8 26.9143L17.6592 17.6792L26.8286 1.8C28.2857 -0.6 31.7143 -0.6 33.0857 1.8L42.2916 17.6572L58.2 26.8286C60.6 28.2 60.6 31.7143 58.2 33.0857L42.34 42.245L33.1714 58.2C31.8 60.6 28.2857 60.6 26.9143 58.2L17.755 42.34ZM30 41.6572L18.3429 30L30 18.3429L41.6572 30L30 41.6572Z" fill="#333333"/>
</svg>
