<svg width="32" height="32" viewBox="0 0 14 12" fill="none" xmlns="http://www.w3.org/2000/svg">
    <path
        d="M13 2H8.66687L6.93313 0.7C6.75978 0.57066 6.54941 0.500536 6.33313 0.5H3.5C3.23478 0.5 2.98043 0.605357 2.79289 0.792893C2.60536 0.98043 2.5 1.23478 2.5 1.5V2.5H1.5C1.23478 2.5 0.98043 2.60536 0.792893 2.79289C0.605357 2.98043 0.5 3.23478 0.5 3.5V10.5C0.5 10.7652 0.605357 11.0196 0.792893 11.2071C0.98043 11.3946 1.23478 11.5 1.5 11.5H11.0556C11.306 11.4997 11.546 11.4001 11.723 11.223C11.9001 11.046 11.9997 10.806 12 10.5556V9.5H13.0556C13.306 9.49967 13.546 9.40007 13.723 9.22303C13.9001 9.046 13.9997 8.80599 14 8.55562V3C14 2.73478 13.8946 2.48043 13.7071 2.29289C13.5196 2.10536 13.2652 2 13 2ZM11 10.5H1.5V3.5H4.33313L6.06687 4.8C6.24022 4.92934 6.45059 4.99946 6.66687 5H11V10.5ZM13 8.5H12V5C12 4.73478 11.8946 4.48043 11.7071 4.29289C11.5196 4.10536 11.2652 4 11 4H6.66687L4.93313 2.7C4.75978 2.57066 4.54941 2.50054 4.33313 2.5H3.5V1.5H6.33313L8.06688 2.8C8.24022 2.92934 8.45059 2.99946 8.66687 3H13V8.5Z"
        fill="currentColor" />
</svg>