<svg width="32" height="32" viewBox="0 0 12 12" fill="none" xmlns="http://www.w3.org/2000/svg">
    <path
        d="M11 0H1C0.734784 0 0.48043 0.105357 0.292893 0.292893C0.105357 0.48043 0 0.734784 0 1V11C0 11.2652 0.105357 11.5196 0.292893 11.7071C0.48043 11.8946 0.734784 12 1 12H11C11.2652 12 11.5196 11.8946 11.7071 11.7071C11.8946 11.5196 12 11.2652 12 11V1C12 0.734784 11.8946 0.48043 11.7071 0.292893C11.5196 0.105357 11.2652 0 11 0ZM11 1V7.5H9.20625C9.07499 7.49966 8.94496 7.5254 8.82372 7.57572C8.70248 7.62604 8.59245 7.69994 8.5 7.79313L7.29313 9H4.70687L3.5 7.79313C3.40748 7.69986 3.29734 7.62592 3.17599 7.5756C3.05464 7.52528 2.9245 7.49958 2.79313 7.5H1V1H11ZM11 11H1V8.5H2.79313L4 9.70687C4.09252 9.80014 4.20266 9.87408 4.32401 9.9244C4.44536 9.97472 4.5755 10.0004 4.70687 10H7.29313C7.4245 10.0004 7.55464 9.97472 7.67599 9.9244C7.79734 9.87408 7.90748 9.80014 8 9.70687L9.20687 8.5H11V11Z"
        fill="#343330" />
</svg>