<svg width="11" height="10" viewBox="0 0 11 10" fill="none" xmlns="http://www.w3.org/2000/svg">
    <path
        d="M10.5652 9.23467L8.21819 6.88811C8.89846 6.07141 9.23767 5.02389 9.16527 3.96345C9.09287 2.90302 8.61443 1.91132 7.82948 1.19466C7.04453 0.477995 6.01349 0.0915414 4.95087 0.115691C3.88824 0.139841 2.87583 0.572735 2.12425 1.32432C1.37266 2.0759 0.939768 3.08831 0.915618 4.15094C0.891468 5.21357 1.27792 6.2446 1.99459 7.02955C2.71125 7.8145 3.70295 8.29294 4.76338 8.36535C5.82381 8.43775 6.87134 8.09853 7.68804 7.41827L10.0346 9.7653C10.0694 9.80014 10.1108 9.82778 10.1563 9.84663C10.2018 9.86549 10.2506 9.87519 10.2999 9.87519C10.3492 9.87519 10.398 9.86549 10.4435 9.84663C10.489 9.82778 10.5304 9.80014 10.5652 9.7653C10.6001 9.73046 10.6277 9.68909 10.6466 9.64357C10.6654 9.59805 10.6751 9.54926 10.6751 9.49998C10.6751 9.45071 10.6654 9.40192 10.6466 9.3564C10.6277 9.31088 10.6001 9.26951 10.5652 9.23467ZM1.67491 4.24998C1.67491 3.58247 1.87285 2.92995 2.2437 2.37493C2.61455 1.81992 3.14165 1.38734 3.75835 1.13189C4.37506 0.876446 5.05366 0.809609 5.70834 0.939835C6.36303 1.07006 6.96439 1.3915 7.4364 1.8635C7.9084 2.3355 8.22984 2.93687 8.36006 3.59155C8.49029 4.24624 8.42345 4.92484 8.168 5.54154C7.91256 6.15824 7.47998 6.68535 6.92496 7.05619C6.36995 7.42704 5.71742 7.62498 5.04991 7.62498C4.15511 7.62399 3.29724 7.26809 2.66452 6.63537C2.0318 6.00265 1.6759 5.14479 1.67491 4.24998Z"
        fill="currentColor" />
</svg>