<svg width="32" height="32" viewBox="0 0 32 32" fill="none" xmlns="http://www.w3.org/2000/svg">
    <path
        d="M28 6H4C3.73478 6 3.48043 6.10536 3.29289 6.29289C3.10536 6.48043 3 6.73478 3 7V24C3 24.5304 3.21071 25.0391 3.58579 25.4142C3.96086 25.7893 4.46957 26 5 26H27C27.5304 26 28.0391 25.7893 28.4142 25.4142C28.7893 25.0391 29 24.5304 29 24V7C29 6.73478 28.8946 6.48043 28.7071 6.29289C28.5196 6.10536 28.2652 6 28 6ZM5 14H10V18H5V14ZM12 14H27V18H12V14ZM27 8V12H5V8H27ZM5 20H10V24H5V20ZM27 24H12V20H27V24Z"
        fill="#343330" />
</svg>