<svg xmlns="http://www.w3.org/2000/svg" width="760" height="280" viewBox="0 0 760 280" role="img" aria-label="Wait for the other data owner connected to the enclave to complete Step 5">
  <rect x="0.5" y="0.5" width="759" height="279" rx="6" fill="#fefefe" stroke="#e8eaed"/>

  <!-- person -->
  <g>
    <!-- torso -->
    <path d="M78 245 L78 190 a47 47 0 0 1 47 -47 a47 47 0 0 1 47 47 L172 245 Z" fill="#4b87d1"/>
    <!-- raised arm -->
    <path d="M150 240 L150 196 a22 22 0 0 1 22 -22 l6 0 a20 20 0 0 1 0 40 l-6 0 a22 22 0 0 0 -22 22 Z" fill="#4b87d1"/>
    <!-- hand -->
    <rect x="158" y="140" width="30" height="42" rx="14" fill="#f6cda4"/>
    <!-- head -->
    <rect x="82" y="60" width="76" height="82" rx="26" fill="#f6cda4"/>
    <!-- hair -->
    <path d="M82 92 a38 34 0 0 1 76 0 l0 -6 a38 34 0 0 0 -76 0 Z" fill="#4a3728"/>
    <path d="M80 90 c0 -26 18 -44 45 -44 c27 0 45 18 45 40 c-8 -14 -20 -22 -34 -22 c-20 0 -30 12 -56 26 Z" fill="#4a3728"/>
    <!-- closed, smiling eyes -->
    <path d="M96 104 q7 -9 14 0" fill="none" stroke="#3b3b3b" stroke-width="3.4" stroke-linecap="round"/>
    <path d="M126 104 q7 -9 14 0" fill="none" stroke="#3b3b3b" stroke-width="3.4" stroke-linecap="round"/>
    <!-- hourglass -->
    <g>
      <rect x="150" y="88" width="48" height="7" rx="3.5" fill="#4a5568"/>
      <rect x="150" y="151" width="48" height="7" rx="3.5" fill="#4a5568"/>
      <path d="M156 95 L192 95 L177 123 L192 151 L156 151 L171 123 Z" fill="#eef1f6" stroke="#4a5568" stroke-width="3.5" stroke-linejoin="round"/>
      <path d="M160 99 L188 99 L174 122 Z" fill="#f0b429"/>
      <path d="M174 133 L186 147 L162 147 Z" fill="#f0b429"/>
      <line x1="174" y1="124" x2="174" y2="140" stroke="#f0b429" stroke-width="3" stroke-linecap="round"/>
    </g>
    <!-- waiting motion marks -->
    <path d="M212 96 q9 12 0 24" fill="none" stroke="#c6ccd6" stroke-width="4" stroke-linecap="round"/>
    <path d="M70 74 q-9 12 0 24" fill="none" stroke="#c6ccd6" stroke-width="4" stroke-linecap="round"/>
  </g>

  <!-- speech bubble -->
  <path d="M242 118 L214 138 L242 158 Z" fill="#eaeff7" stroke="#ccd8e8" stroke-width="2"/>
  <rect x="241" y="44" width="496" height="188" rx="14" fill="#eaeff7" stroke="#ccd8e8" stroke-width="2"/>
  <rect x="243" y="120" width="4" height="36" fill="#eaeff7"/>

  <g fill="#2c3e50" font-family="'DejaVu Sans','Open Sans',Verdana,sans-serif" font-size="27" font-weight="bold" text-anchor="middle">
    <text x="489" y="103">Wait for the other data owner</text>
    <text x="489" y="142">connected to the enclave</text>
    <text x="489" y="181">to complete Step 5</text>
  </g>
</svg>
