<?xml version="1.0" encoding="UTF-8"?>
<svg id="Layer_2" data-name="Layer 2" xmlns="http://www.w3.org/2000/svg" viewBox="0 0 209.4 98.2">
  <defs>
    <style>
      .Graphic_Style_17 {
        fill: #b6ce95;
      }

      .Graphic_Style_17, .Graphic_Style_11, .Graphic_Style_12, .Graphic_Style_4, .Graphic_Style_10, .Graphic_Style_5, .Graphic_Style_14, .Graphic_Style_3, .Graphic_Style_15, .Graphic_Style_13, .Graphic_Style_18, .Graphic_Style_2, .Graphic_Style, .Graphic_Style_7, .Graphic_Style_6, .Graphic_Style_8, .Graphic_Style_9, .Graphic_Style_19, .Graphic_Style_16, .Graphic_Style_20, .cls-1 {
        stroke-width: 0px;
      }

      .Graphic_Style_11 {
        fill: #91c19e;
      }

      .Graphic_Style_12 {
        fill: #c7bb85;
      }

      .Graphic_Style_4 {
        fill: #8d8497;
      }

      .Graphic_Style_10 {
        fill: #66a2ac;
      }

      .Graphic_Style_5 {
        fill: #c45a73;
      }

      .Graphic_Style_14 {
        fill: #a9cb96;
      }

      .Graphic_Style_3 {
        fill: #b3587f;
      }

      .Graphic_Style_15 {
        fill: #d9b980;
      }

      .Graphic_Style_13 {
        fill: #5cabb1;
      }

      .Graphic_Style_18 {
        fill: #edbb79;
      }

      .Graphic_Style_2 {
        fill: #de7d69;
      }

      .Graphic_Style {
        fill: #fcbf73;
      }

      .Graphic_Style_7 {
        fill: #7695a3;
      }

      .Graphic_Style_6 {
        fill: #a05f88;
      }

      .Graphic_Style_8 {
        fill: #87b4a2;
      }

      .Graphic_Style_9 {
        fill: #896c95;
      }

      .Graphic_Style_19 {
        fill: #ed9669;
      }

      .Graphic_Style_16 {
        fill: #f1a970;
      }

      .Graphic_Style_20 {
        fill: #c45875;
      }

      .cls-1 {
        fill: #fff;
      }
    </style>
  </defs>
  <g id="Logos">
    <g>
      <g>
        <path class="cls-1" d="M117.98,75.75c-2.11-.91-3.72-2.1-4.82-3.59-1.1-1.48-1.69-3.08-1.75-4.79,0-.28.1-.52.31-.73s.47-.31.79-.31h2.57c.63,0,1.06.35,1.31,1.05.31,1.47,1.21,2.73,2.7,3.8,1.48,1.07,3.61,1.6,6.36,1.6,2.97,0,5.19-.52,6.65-1.57,1.47-1.05,2.2-2.5,2.2-4.35,0-1.19-.36-2.16-1.07-2.93-.72-.77-1.78-1.44-3.19-2.02-1.41-.58-3.54-1.28-6.36-2.12-2.69-.77-4.83-1.59-6.42-2.46-1.59-.87-2.78-1.95-3.59-3.22-.8-1.27-1.21-2.89-1.21-4.85s.51-3.57,1.52-5.05c1.01-1.48,2.48-2.65,4.4-3.51,1.92-.86,4.19-1.28,6.81-1.28s5.06.48,6.99,1.44c1.94.96,3.41,2.17,4.43,3.61,1.01,1.45,1.55,2.91,1.62,4.37,0,.31-.1.58-.31.79s-.47.31-.79.31h-2.62c-.28,0-.54-.09-.79-.26-.25-.17-.42-.44-.52-.79-.21-1.5-1.05-2.74-2.51-3.72-1.47-.98-3.3-1.47-5.5-1.47-2.38,0-4.26.46-5.66,1.39-1.4.93-2.1,2.3-2.1,4.11,0,1.22.32,2.22.97,2.99s1.64,1.45,2.99,2.04c1.34.59,3.31,1.28,5.89,2.04,2.97.84,5.3,1.68,6.99,2.51,1.69.84,2.96,1.88,3.8,3.12.84,1.24,1.26,2.84,1.26,4.79,0,3.28-1.25,5.84-3.75,7.67-2.5,1.83-5.88,2.75-10.14,2.75-2.86,0-5.35-.45-7.46-1.36Z"/>
        <path class="cls-1" d="M147.75,86.23c-.21-.21-.31-.45-.31-.73,0-.11.09-.42.26-.94l4.09-9.59-10-23.62c-.21-.42-.31-.72-.31-.89.03-.31.16-.58.37-.79s.45-.31.73-.31h2.41c.56,0,.98.28,1.26.84l8.07,19.28,8.28-19.28c.28-.56.7-.84,1.26-.84h2.36c.28,0,.52.11.73.31s.31.45.31.73c0,.25-.09.56-.26.94l-14.82,34.36c-.17.28-.36.49-.55.63-.19.14-.45.21-.76.21h-2.3c-.31,0-.58-.1-.79-.31Z"/>
        <path class="cls-1" d="M175.91,76.25c-.23-.23-.34-.51-.34-.86v-22h-4.5c-.35,0-.64-.1-.86-.31-.23-.21-.34-.49-.34-.84v-1.68c0-.35.11-.64.34-.86.23-.23.51-.34.86-.34h4.5v-2.62c0-2.83.69-5.02,2.07-6.57,1.38-1.55,3.64-2.33,6.78-2.33h3.09c.35,0,.64.11.86.34.23.23.34.52.34.86v1.68c0,.35-.11.63-.34.84s-.52.31-.86.31h-2.99c-1.61,0-2.72.42-3.35,1.26-.63.84-.94,2.13-.94,3.88v2.36h6.76c.35,0,.64.11.86.34.23.23.34.52.34.86v1.68c0,.35-.11.63-.34.84-.23.21-.52.31-.86.31h-6.76v22c0,.35-.11.64-.34.86-.23.23-.52.34-.86.34h-2.25c-.35,0-.64-.11-.86-.34Z"/>
        <path class="cls-1" d="M196.57,67.42v-14.04h-4.14c-.35,0-.63-.1-.84-.31-.21-.21-.32-.49-.32-.84v-1.68c0-.35.1-.64.32-.86.21-.23.49-.34.84-.34h4.14v-8.75c0-.35.11-.64.32-.86.21-.23.49-.34.84-.34h2.3c.35,0,.64.11.86.34.23.23.34.52.34.86v8.75h6.5c.35,0,.64.11.86.34.23.23.34.52.34.86v1.68c0,.35-.11.63-.34.84-.23.21-.52.31-.86.31h-6.5v13.67c0,1.78.29,3.13.86,4.03.58.91,1.56,1.36,2.96,1.36h3.19c.35,0,.63.11.84.34.21.23.32.52.32.86v1.73c0,.35-.1.64-.32.86-.21.23-.49.34-.84.34h-3.56c-5.41,0-8.12-3.06-8.12-9.17Z"/>
      </g>
      <g>
        <polygon class="Graphic_Style_13" points="83.53 98.2 94.74 63.68 87.22 74.7 71.18 98.19 83.53 98.2"/>
        <polygon class="Graphic_Style_14" points="82.88 36.67 94.74 63.68 87.22 74.7 84.08 47.21 82.88 36.67"/>
        <polygon class="Graphic_Style_15" points="61.07 26.68 82.88 36.67 84.08 47.21 67.5 32.42 61.07 26.68"/>
        <polygon class="Graphic_Style_16" points="42.43 32.42 67.5 32.42 61.07 26.68 42.43 32.42"/>
        <polygon class="Graphic_Style_17" points="103.25 37.51 73.89 16.18 82.04 26.74 99.43 49.25 103.25 37.51"/>
        <polygon class="Graphic_Style_18" points="44.53 19.11 73.89 16.18 82.04 26.74 54.93 21.22 44.53 19.11"/>
        <polygon class="Graphic_Style_19" points="28.3 36.77 44.53 19.11 54.93 21.22 35.74 32.42 28.3 36.77"/>
        <polygon class="Graphic_Style_20" points="27.99 56.27 35.74 32.42 28.3 36.77 27.99 56.27"/>
        <polygon class="Graphic_Style" points="51.62 0 22.27 21.33 34.83 16.84 61.62 7.26 51.62 0"/>
        <polygon class="Graphic_Style_2" points="15.98 50.16 22.27 21.33 34.83 16.84 21.21 40.92 15.98 50.16"/>
        <polygon class="Graphic_Style_3" points="27.76 71.05 15.98 50.16 21.21 40.92 25.93 62.63 27.76 71.05"/>
        <polygon class="Graphic_Style_4" points="46.21 77.37 25.93 62.63 27.76 71.05 46.21 77.37"/>
        <polygon class="Graphic_Style_5" points="0 37.51 11.22 72.02 10.83 58.69 9.99 30.25 0 37.51"/>
        <polygon class="Graphic_Style_6" points="36.69 86.9 11.22 72.02 10.83 58.69 29.52 79.08 36.69 86.9"/>
        <polygon class="Graphic_Style_7" points="60.2 82.16 36.69 86.9 29.52 79.08 51.63 81.3 60.2 82.16"/>
        <polygon class="Graphic_Style_8" points="71.91 66.57 51.63 81.3 60.2 82.16 71.91 66.57"/>
        <polygon class="Graphic_Style_9" points="19.72 98.2 56.01 98.19 43.21 94.44 15.9 86.45 19.72 98.2"/>
        <polygon class="Graphic_Style_10" points="78.03 78.57 56.01 98.19 43.21 94.44 68.38 82.97 78.03 78.57"/>
        <polygon class="Graphic_Style_11" points="80.79 54.74 78.03 78.57 68.38 82.97 77.32 62.63 80.79 54.74"/>
        <polygon class="Graphic_Style_12" points="69.58 38.79 77.32 62.63 80.79 54.74 69.58 38.79"/>
      </g>
    </g>
  </g>
</svg>